<svg width="256" height="49" viewBox="0 0 256 49" fill="none" xmlns="http://www.w3.org/2000/svg">
<path d="M9.81818 1.45454L21.9318 38.0909H22.4091L34.5 1.45454H43.7727L27.3636 48H16.9545L0.568182 1.45454H9.81818ZM94.1705 8.52273V1.45454H131.307V8.52273H116.92V48H108.557V8.52273H94.1705ZM163.761 14.25C163.549 12.2652 162.655 10.7197 161.08 9.61364C159.519 8.50757 157.489 7.95454 154.989 7.95454C153.231 7.95454 151.723 8.2197 150.466 8.75C149.208 9.2803 148.246 10 147.58 10.9091C146.913 11.8182 146.572 12.8561 146.557 14.0227C146.557 14.9924 146.777 15.8333 147.216 16.5455C147.67 17.2576 148.284 17.8636 149.057 18.3636C149.83 18.8485 150.686 19.2576 151.625 19.5909C152.564 19.9242 153.511 20.2045 154.466 20.4318L158.83 21.5227C160.587 21.9318 162.277 22.4848 163.898 23.1818C165.534 23.8788 166.996 24.7576 168.284 25.8182C169.587 26.8788 170.617 28.1591 171.375 29.6591C172.133 31.1591 172.511 32.9167 172.511 34.9318C172.511 37.6591 171.814 40.0606 170.42 42.1364C169.027 44.197 167.011 45.8106 164.375 46.9773C161.754 48.1288 158.58 48.7045 154.852 48.7045C151.231 48.7045 148.087 48.1439 145.42 47.0227C142.769 45.9015 140.693 44.2652 139.193 42.1136C137.708 39.9621 136.905 37.3409 136.784 34.25H145.08C145.201 35.8712 145.701 37.2197 146.58 38.2955C147.458 39.3712 148.602 40.1742 150.011 40.7045C151.436 41.2348 153.027 41.5 154.784 41.5C156.617 41.5 158.223 41.2273 159.602 40.6818C160.996 40.1212 162.087 39.3485 162.875 38.3636C163.663 37.3636 164.064 36.197 164.08 34.8636C164.064 33.6515 163.708 32.6515 163.011 31.8636C162.314 31.0606 161.337 30.3939 160.08 29.8636C158.837 29.3182 157.383 28.8333 155.716 28.4091L150.42 27.0455C146.587 26.0606 143.557 24.5682 141.33 22.5682C139.117 20.553 138.011 17.8788 138.011 14.5455C138.011 11.803 138.754 9.40151 140.239 7.34091C141.739 5.2803 143.777 3.68182 146.352 2.54545C148.928 1.39394 151.845 0.81818 155.102 0.81818C158.405 0.81818 161.299 1.39394 163.784 2.54545C166.284 3.68182 168.246 5.26515 169.67 7.29545C171.095 9.3106 171.83 11.6288 171.875 14.25H163.761ZM226.341 48V1.45454H234.773V40.9318H255.273V48H226.341Z" fill="#3A86FF"/>
<path d="M55.8807 48H46.8807L63.267 1.45454H73.6761L90.0852 48H81.0852L68.6534 11H68.2898L55.8807 48ZM56.1761 29.75H80.7216V36.5227H56.1761V29.75ZM186.006 48H177.006L193.392 1.45454H203.801L220.21 48H211.21L198.778 11H198.415L186.006 48ZM186.301 29.75H210.847V36.5227H186.301V29.75Z" fill="#D0D0D0" fill-opacity="0.819608"/>
</svg>
